<?xml version="1.0" encoding="utf-8"?>
<!-- Generator: Adobe Illustrator 23.0.0, SVG Export Plug-In . SVG Version: 6.00 Build 0)  -->
<svg version="1.1" id="Слой_1" xmlns="http://www.w3.org/2000/svg" xmlns:xlink="http://www.w3.org/1999/xlink" x="0px" y="0px"
	 viewBox="0 0 475.7 185.4" style="enable-background:new 0 0 475.7 185.4;" xml:space="preserve">
<style type="text/css">
	.st0{fill:#E9A944;}
	.st1{fill:#FFFFFF;}
	.st2{font-family:'MyriadPro-Regular';}
	.st3{font-size:93.5433px;}
	.st4{letter-spacing:2;}
</style>
<g>
	<g>
		<g>
			<g>
				<path class="st0" d="M90.6,9.3c-47,0-85.1,38-85.1,85c0,47,38,85.1,85,85.1c47,0,85-38.1,85.1-85C175.6,47.4,137.6,9.3,90.6,9.3
					z M90.5,165.2c-39.1,0-70.9-31.7-70.9-70.9s31.7-70.9,70.9-70.9c39.1,0,70.8,31.8,70.9,70.9C161.4,133.5,129.7,165.2,90.5,165.2
					z"/>
			</g>
		</g>
		<g>
			<g>
				<path class="st0" d="M113.5,90.2c5.7-3.2,8.8-9.6,7.7-16.1c-1.3-9.9-13.2-13.7-22.5-14.5V44.7h-9.2v14.8h-6.2V44.7h-9.2v14.8
					H55.5V69h6.9c3.1,0,4.6,0.9,4.6,3.4v41c0,3.4-1.7,4.5-3.6,4.5h-7v9.7h17.9v15.1h9.3v-15.1h6.2v15.1h9v-15.1h2
					c19,0,25.3-9.3,25.3-21.9C125.9,98.3,120.7,91.9,113.5,90.2z M83.3,69.6h6.6c4.6,0,13.7,0.8,13.7,8.3c0.3,4.9-3.2,9.2-8.1,9.8
					H83.3C83.3,87.7,83.3,69.6,83.3,69.6z M93.5,117L93.5,117L83.3,117V97.2h11.8c2.8,0,13.2,0.9,13.2,8.3S103.3,117,93.5,117z"/>
			</g>
		</g>
	</g>
	<text transform="matrix(1 0 0 1 195.4739 121.773)" class="st1 st2 st3 st4">Crypto</text>
</g>
</svg>
