<?xml version="1.0" encoding="utf-8"?>
<!-- Generator: Adobe Illustrator 23.0.0, SVG Export Plug-In . SVG Version: 6.00 Build 0)  -->
<svg version="1.1" id="Слой_1" xmlns="http://www.w3.org/2000/svg" xmlns:xlink="http://www.w3.org/1999/xlink" x="0px" y="0px"
	 viewBox="0 0 179.2 177.7" style="enable-background:new 0 0 179.2 177.7;" xml:space="preserve">
<style type="text/css">
	.st0{fill:#E9A944;}
</style>
<g>
	<g>
		<g>
			<path class="st0" d="M89.9,3.8c-47,0-85.1,38-85.1,85c0,47,38,85.1,85,85.1c47,0,85-38.1,85.1-85C174.8,41.9,136.8,3.9,89.9,3.8z
				 M89.7,159.7c-39.1,0-70.9-31.7-70.9-70.9S50.6,18,89.7,18c39.1,0,70.8,31.8,70.9,70.9C160.6,128,128.9,159.7,89.7,159.7z"/>
		</g>
	</g>
	<g>
		<g>
			<path class="st0" d="M112.7,84.7c5.7-3.2,8.8-9.6,7.7-16.1c-1.3-9.9-13.2-13.7-22.5-14.5V39.2h-9.2V54h-6.2V39.2h-9.2V54H54.7
				v9.5h6.9c3.1,0,4.6,0.9,4.6,3.4v41c0,3.4-1.7,4.5-3.6,4.5h-7v9.7h17.9v15.1h9.3v-15.1H89v15.1h9v-15.1h2c19,0,25.3-9.3,25.3-21.9
				C125.1,92.9,120,86.4,112.7,84.7z M82.5,64.2h6.6c4.6,0,13.7,0.8,13.7,8.3c0.3,4.9-3.2,9.2-8.1,9.8H82.5
				C82.5,82.3,82.5,64.2,82.5,64.2z M92.7,111.6L92.7,111.6l-10.2-0.1V91.7h11.8c2.8,0,13.2,0.9,13.2,8.3S102.6,111.6,92.7,111.6z"
				/>
		</g>
	</g>
</g>
</svg>
